HIERARCHY
ROOT Hips
{
	OFFSET	0.00	0.00	0.00
	CHANNELS 6 Xposition Yposition Zposition Zrotation Xrotation Yrotation
	JOINT LeftUpLeg
	{
		OFFSET	 0.126116	-0.014019	-0.065224
		CHANNELS 3 Zrotation Xrotation Yrotation
		JOINT LeftLeg
		{
			OFFSET	 0.000000	 0.000000	 0.569914
			CHANNELS 3 Zrotation Xrotation Yrotation
			JOINT LeftFoot
			{
				OFFSET	 0.000000	 0.000000	 0.544423
				CHANNELS 3 Zrotation Xrotation Yrotation
				JOINT LeftToeBase
				{
					OFFSET	 0.000000	 0.000000	 0.207117
					CHANNELS 3 Zrotation Xrotation Yrotation
					End Site
					{
						OFFSET	 0.000000	 0.000000	 0.207117
					}
				}
			}
		}
	}
	JOINT RightUpLeg
	{
		OFFSET	-0.124023	-0.008373	-0.065224
		CHANNELS 3 Zrotation Xrotation Yrotation
		JOINT RightLeg
		{
			OFFSET	 0.000000	 0.000000	 0.570047
			CHANNELS 3 Zrotation Xrotation Yrotation
			JOINT RightFoot
			{
				OFFSET	 0.000000	 0.000000	 0.544354
				CHANNELS 3 Zrotation Xrotation Yrotation
				JOINT RightToeBase
				{
					OFFSET	 0.000000	 0.000000	 0.207540
					CHANNELS 3 Zrotation Xrotation Yrotation
					End Site
					{
						OFFSET	 0.000000	 0.000000	 0.207540
					}
				}
			}
		}
	}
	JOINT Spine
	{
		OFFSET	 0.000184	-0.007763	 0.117403
		CHANNELS 3 Zrotation Xrotation Yrotation
		JOINT Spine1
		{
			OFFSET	 0.000000	 0.000000	 0.137269
			CHANNELS 3 Zrotation Xrotation Yrotation
			JOINT Spine2
			{
				OFFSET	 0.000000	 0.000000	 0.156879
				CHANNELS 3 Zrotation Xrotation Yrotation
				JOINT LeftShoulder
				{
					OFFSET	 0.080501	-0.002496	 0.160144
					CHANNELS 3 Zrotation Xrotation Yrotation
					JOINT LeftArm
					{
						OFFSET	 0.000000	 0.000000	 0.164363
						CHANNELS 3 Zrotation Xrotation Yrotation
						JOINT LeftForeArm
						{
							OFFSET	 0.000000	 0.000000	 0.364576
							CHANNELS 3 Zrotation Xrotation Yrotation
							JOINT LeftHand
							{
								OFFSET	 0.000000	 0.000000	 0.360812
								CHANNELS 3 Zrotation Xrotation Yrotation
								JOINT LeftHandIndex1
								{
									OFFSET	 0.000000	 0.000000	 0.086006
									CHANNELS 3 Zrotation Xrotation Yrotation
									JOINT LeftHandIndex2
									{
										OFFSET	 0.000000	 0.000000	 0.047236
										CHANNELS 3 Zrotation Xrotation Yrotation
										JOINT LeftHandIndex3
										{
											OFFSET	-0.004284	-0.000551	 0.038166
											CHANNELS 3 Zrotation Xrotation Yrotation
											End Site
											{
												OFFSET	-0.004284	-0.000551	 0.038166
											}
										}
									}
								}
							}
						}
					}
				}
				JOINT Neck
				{
					OFFSET	 0.000000	 0.000000	 0.176489
					CHANNELS 3 Zrotation Xrotation Yrotation
					JOINT Head
					{
						OFFSET	 0.000000	-0.001747	 0.077940
						CHANNELS 3 Zrotation Xrotation Yrotation
						End Site
						{
							OFFSET	 0.000000	-0.001747	 0.077940
						}
					}
				}
				JOINT RightShoulder
				{
					OFFSET	-0.080363	 0.000306	 0.159706
					CHANNELS 3 Zrotation Xrotation Yrotation
					JOINT RightArm
					{
						OFFSET	 0.000000	 0.000000	 0.164196
						CHANNELS 3 Zrotation Xrotation Yrotation
						JOINT RightForeArm
						{
							OFFSET	 0.000000	 0.000000	 0.365611
							CHANNELS 3 Zrotation Xrotation Yrotation
							JOINT RightHand
							{
								OFFSET	 0.000000	 0.000000	 0.360648
								CHANNELS 3 Zrotation Xrotation Yrotation
								JOINT RightHandIndex1
								{
									OFFSET	 0.000000	 0.000000	 0.069977
									CHANNELS 3 Zrotation Xrotation Yrotation
									JOINT RightHandIndex2
									{
										OFFSET	 0.000000	 0.000000	 0.052305
										CHANNELS 3 Zrotation Xrotation Yrotation
										JOINT RightHandIndex3
										{
											OFFSET	 0.009002	-0.000782	 0.042196
											CHANNELS 3 Zrotation Xrotation Yrotation
											End Site
											{
												OFFSET	 0.009002	-0.000782	 0.042196
											}
										}
									}
								}
							}
						}
					}
				}
			}
		}
	}
}
MOTION
Frames:    5
Frame Time: 0.03333334
-0.000226	 0.043130	 1.278008	-0.070562	 2.741189	 0.436240	-11.863320	-5.416067	 179.746800	 2.216693	-12.185790	 0.556202	 0.329770	 70.774130	-0.493140	-2.385833	 28.452750	 0.000004	 19.408210	-4.981489	-179.692000	-0.796039	-10.707240	 0.809732	 4.990921	 69.746310	 1.354710	 2.384659	 28.388700	-0.000001	-6.238400	 6.571192	 1.455437	-3.132778	-4.486006	-0.405208	 9.659980	 7.214446	-0.701116	-91.104520	 69.345720	-177.678100	-7.574674	 1.439686	-0.423107	 23.010800	-9.234999	-35.899160	-9.324956	-29.470160	-4.750586	-2.027600	 6.559038	 9.033609	-5.188889	 0.308190	 3.541030	-5.234859	 0.342567	 0.430617	 4.506145	 18.942350	-7.052560	 4.843759	-14.429490	 2.221976	 88.925950	 68.075130	 177.187600	 8.754380	 5.957275	 6.744139	-26.668680	-8.359980	 22.871980	 6.991342	-29.286950	 6.684868	 1.803333	 3.979147	-15.098590	 4.898592	 3.004813	-9.310344	 5.224449	 0.395017	 2.014677
-0.000607	 0.045082	 1.279762	-0.025284	 3.424929	 0.446488	-11.970590	-5.756123	 179.535000	 2.143146	-11.206090	 0.497767	-0.188446	 70.062190	 0.140621	-2.385833	 28.452750	 0.000004	 19.360530	-5.142069	-179.387300	-0.799712	-9.407739	 0.711821	 5.172689	 68.850560	 1.122541	 2.384659	 28.388700	-0.000001	-6.239716	 6.978796	 1.583769	-3.224201	-6.219224	-0.655777	 9.753634	 9.071280	-0.880746	-90.973500	 68.460610	-177.401200	-7.168682	 1.030733	-1.191935	 22.551380	-9.119416	-36.613170	-8.206794	-31.310900	-5.229575	-2.027600	 6.559038	 9.033609	-5.188889	 0.308190	 3.541030	-5.234859	 0.342567	 0.430617	 4.700770	 21.397950	-7.810442	 5.191438	-16.311900	 2.327224	 88.721760	 66.676720	 176.815200	 7.989175	 4.795561	 7.777739	-26.635000	-8.563203	 23.404990	 5.424332	-30.583270	 6.299202	 1.803333	 3.979147	-15.098590	 4.898592	 3.004813	-9.310344	 5.224449	 0.395017	 2.014677
-0.001268	 0.048568	 1.281730	 0.067389	 4.520944	 0.480066	-12.173900	-6.588326	 179.157100	 2.136631	-10.190930	 0.454278	-1.109546	 69.297660	 1.132532	-2.385833	 28.452750	 0.000004	 19.244250	-5.608599	-178.934800	-0.816830	-7.704334	 0.581501	 5.535312	 67.592300	 0.691379	 2.384659	 28.388700	-0.000001	-6.105627	 7.500033	 1.741052	-3.338791	-8.592251	-1.021548	 9.714580	 11.466580	-1.086620	-90.830130	 67.474420	-177.128600	-6.615986	 1.266992	-2.028012	 21.841110	-8.945153	-37.810340	-7.173540	-34.259510	-6.187308	-2.027600	 6.559038	 9.033609	-5.188889	 0.308190	 3.541030	-5.234859	 0.342567	 0.430617	 4.763049	 24.414470	-8.678482	 5.716624	-18.770330	 2.557602	 88.444760	 64.770950	 176.370300	 6.975284	 3.772317	 8.976202	-26.392550	-8.814694	 24.306980	 3.449772	-32.714710	 5.943055	 1.803333	 3.979147	-15.098590	 4.898592	 3.004813	-9.310344	 5.224449	 0.395017	 2.014677
-0.001937	 0.053135	 1.283805	 0.180821	 5.906350	 0.560966	-12.390700	-7.632544	 178.638400	 2.114293	-8.890210	 0.391371	-2.195148	 68.369300	 2.350477	-2.385832	 28.452790	-0.000001	 18.968610	-5.810313	-178.368700	-1.200233	-4.707319	 0.324349	 6.165187	 65.705320	 0.350310	 2.384659	 28.388700	-0.000001	-5.862869	 7.908088	 1.805036	-3.496214	-11.383410	-1.391344	 9.485383	 13.811350	-1.335978	-90.833490	 66.129420	-177.350300	-5.495234	 1.560738	-2.192191	 20.258030	-8.041901	-39.157390	-7.657513	-37.181060	-7.773153	-2.027600	 6.559038	 9.033609	-5.188889	 0.308190	 3.541030	-5.234859	 0.342567	 0.430617	 4.422005	 25.925860	-8.803248	 5.970448	-20.198400	 2.521833	 88.394770	 62.751430	 176.552400	 5.343543	 2.909384	 9.381096	-25.515380	-8.757366	 25.285810	 2.005396	-34.801510	 6.278450	 1.803333	 3.979147	-15.098590	 4.898592	 3.004813	-9.310344	 5.224449	 0.395017	 2.014677
-0.002410	 0.059976	 1.285074	 0.433300	 7.815303	 0.606978	-12.799240	-9.742069	 177.966000	 2.029736	-8.362291	 0.355976	-3.472541	 67.500600	 3.857709	-2.385832	 28.452790	-0.000001	 18.539460	-6.699982	-177.583200	-1.500384	-1.834843	 0.116895	 7.095489	 63.749300	-0.405948	 2.384659	 28.388700	-0.000001	-5.582017	 8.062191	 1.797076	-3.714525	-14.860050	-1.817474	 9.118744	 16.328450	-1.499849	-91.238540	 65.124930	-178.563200	-3.696441	 3.107570	-0.994925	 18.838580	-7.242956	-40.736210	-8.710770	-40.277840	-9.825627	-2.027600	 6.559038	 9.033609	-5.188889	 0.308190	 3.541030	-5.234859	 0.342567	 0.430617	 3.938416	 26.796920	-8.782501	 6.109391	-21.306180	 2.491568	 88.750590	 61.329720	 177.569000	 2.938936	 3.637968	 8.496163	-24.662780	-8.734053	 26.396260	 0.570795	-37.431190	 6.771705	 1.803333	 3.979147	-15.098590	 4.898592	 3.004813	-9.310344	 5.224449	 0.395017	 2.014677
